<svg width="94" height="94" viewBox="0 0 94 94" fill="none" xmlns="http://www.w3.org/2000/svg">
<g clip-path="url(#clip0)">
<rect width="94" height="94" fill="white"/>
<path fill-rule="evenodd" clip-rule="evenodd" d="M5.33333 0C18.22 0 28.6667 10.3707 28.6667 23.1636C28.6667 35.9566 39.1134 46.3273 52 46.3273C64.8866 46.3273 75.3333 35.9566 75.3333 23.1636C75.3333 10.3707 85.78 0 98.6667 0C111.553 0 122 10.3707 122 23.1636C122 35.9566 132.447 46.3273 145.333 46.3273C158.22 46.3273 168.667 35.9566 168.667 23.1636C168.667 10.3707 179.113 0 192 0C204.887 0 215.333 10.3707 215.333 23.1636C215.333 35.9566 225.78 46.3273 238.667 46.3273C251.553 46.3273 262 35.9566 262 23.1636C262 10.3707 272.447 0 285.333 0C298.22 0 308.667 10.3707 308.667 23.1636C308.667 35.9566 319.113 46.3273 332 46.3273C344.887 46.3273 355.333 35.9566 355.333 23.1636C355.333 10.3707 365.78 0 378.667 0C391.553 0 402 10.3707 402 23.1636C402 35.9566 412.447 46.3273 425.333 46.3273C438.22 46.3273 448.667 35.9566 448.667 23.1636C448.667 10.3707 459.113 0 472 0C484.887 0 495.333 10.3707 495.333 23.1636C495.333 28.3793 497.07 33.1923 500 37.0641V98L-18 98L-18 23.1636C-18 10.3707 -7.55331 0 5.33333 0Z" fill="#F2994A"/>
<path fill-rule="evenodd" clip-rule="evenodd" d="M2.33333 0C-10.4983 0 -20.9108 10.2824 -20.9994 23H-21V23.1636L-21 98L497 98V37.0641C494.07 33.1923 492.333 28.3793 492.333 23.1636C492.333 23.109 492.333 23.0545 492.334 23H492.333C492.244 10.2824 481.832 0 469 0C456.168 0 445.756 10.2824 445.667 23H445.666L445.666 23.0657L445.667 23.1636C445.667 35.9565 435.22 46.3273 422.333 46.3273C409.447 46.3273 399 35.9565 399 23.1636C399 23.109 399 23.0545 399.001 23H398.999C398.911 10.2824 388.498 0 375.667 0C362.835 0 352.423 10.2824 352.334 23H352.333C352.333 23.0545 352.333 23.109 352.333 23.1636C352.333 35.9565 341.887 46.3273 329 46.3273C316.113 46.3273 305.667 35.9565 305.667 23.1636C305.667 23.109 305.667 23.0545 305.667 23H305.666C305.577 10.2824 295.165 0 282.333 0C269.502 0 259.089 10.2824 259.001 23H258.999L259 23.0737L259 23.1636C259 35.9565 248.553 46.3273 235.667 46.3273C222.78 46.3273 212.333 35.9565 212.333 23.1636C212.333 23.109 212.334 23.0545 212.334 23H212.333C212.244 10.2824 201.832 0 189 0C176.168 0 165.756 10.2824 165.667 23H165.666L165.667 23.0828L165.667 23.1636C165.667 35.9565 155.22 46.3273 142.333 46.3273C129.447 46.3273 119 35.9565 119 23.1636C119 23.109 119 23.0545 119.001 23H118.999C118.911 10.2824 108.498 0 95.6667 0C82.835 0 72.4225 10.2824 72.3339 23H72.3328C72.3331 23.0545 72.3333 23.109 72.3333 23.1636C72.3333 35.9565 61.8866 46.3273 49 46.3273C36.1134 46.3273 25.6667 35.9565 25.6667 23.1636C25.6667 23.109 25.6669 23.0545 25.6672 23H25.6661C25.5775 10.2824 15.165 0 2.33333 0Z" fill="#F6E05E"/>
</g>
<defs>
<clipPath id="clip0">
<rect width="94" height="94" fill="white"/>
</clipPath>
</defs>
</svg>
