<svg width="260" height="141" viewBox="0 0 260 141" fill="none" xmlns="http://www.w3.org/2000/svg">
<g clip-path="url(#clip0)">
<path fill-rule="evenodd" clip-rule="evenodd" d="M79 0C114.899 0 144 29.1015 144 65C144 100.899 173.101 130 209 130C244.899 130 274 100.899 274 65C274 29.1015 303.102 0 339 0C374.898 0 404 29.1015 404 65C404 100.899 433.102 130 469 130C504.898 130 534 100.899 534 65C534 29.1015 563.102 0 599 0C634.898 0 664 29.1015 664 65C664 100.899 693.102 130 729 130C764.898 130 794 100.899 794 65C794 29.1015 823.102 0 859 0C894.898 0 924 29.1015 924 65C924 100.899 953.102 130 989 130C1024.9 130 1054 100.899 1054 65C1054 29.1015 1083.1 0 1119 0C1154.9 0 1184 29.1015 1184 65C1184 100.899 1213.1 130 1249 130C1284.9 130 1314 100.899 1314 65C1314 29.1015 1343.1 0 1379 0C1414.9 0 1444 29.1015 1444 65C1444 79.6357 1448.84 93.1417 1457 104.006V275L14 275L14 65C14 29.1015 43.1015 0 79 0Z" fill="#38A169"/>
<path fill-rule="evenodd" clip-rule="evenodd" d="M65 11.0001C100.899 11.0001 130 40.1016 130 76.0001C130 111.899 159.101 141 195 141C230.899 141 260 111.899 260 76.0001C260 40.1016 289.102 11.0001 325 11.0001C360.898 11.0001 390 40.1016 390 76.0001C390 111.899 419.102 141 455 141C490.898 141 520 111.899 520 76.0001C520 40.1016 549.102 11.0001 585 11.0001C620.898 11.0001 650 40.1016 650 76.0001C650 111.899 679.102 141 715 141C750.898 141 780 111.899 780 76.0001C780 40.1016 809.102 11.0001 845 11.0001C880.898 11.0001 910 40.1016 910 76.0001C910 111.899 939.102 141 975 141C1010.9 141 1040 111.899 1040 76.0001C1040 40.1016 1069.1 11.0001 1105 11.0001C1140.9 11.0001 1170 40.1016 1170 76.0001C1170 111.899 1199.1 141 1235 141C1270.9 141 1300 111.899 1300 76.0001C1300 40.1016 1329.1 11.0001 1365 11.0001C1400.9 11.0001 1430 40.1016 1430 76.0001C1430 90.6358 1434.84 104.142 1443 115.006V286L0 286L0 76.0001C0 40.1016 29.1015 11.0001 65 11.0001Z" fill="#68D391"/>
</g>
<defs>
<clipPath id="clip0">
<rect width="260" height="141" fill="white"/>
</clipPath>
</defs>
</svg>
