<svg width="260" height="159" viewBox="0 0 260 159" fill="none" xmlns="http://www.w3.org/2000/svg">
<g clip-path="url(#clip0)">
<path fill-rule="evenodd" clip-rule="evenodd" d="M925 159C889.101 159 860 129.899 860 94.0001C860 58.1016 830.899 29.0001 795 29.0001C759.101 29.0001 730 58.1016 730 94.0001C730 129.899 700.898 159 665 159C629.102 159 600 129.899 600 94.0001C600 58.1016 570.899 29.0001 535 29.0001C499.102 29.0001 470 58.1016 470 94.0001C470 129.899 440.898 159 405 159C369.102 159 340 129.899 340 94.0001C340 58.1016 310.899 29.0001 275 29.0001C239.102 29.0001 210 58.1015 210 94.0001C210 129.899 180.898 159 145 159C109.102 159 80 129.899 80 94C80 58.1015 50.8985 29 15 29C-20.8985 29 -50 58.1015 -50 94C-50 129.899 -79.1014 159 -115 159C-150.899 159 -180 129.899 -180 94C-180 58.1015 -209.101 29 -245 29C-280.899 29 -310 58.1015 -310 94C-310 129.899 -339.101 159 -375 159C-410.899 159 -440 129.899 -440 94C-440 79.3643 -444.837 65.8583 -453 54.9936L-453 -116L990 -116L990 94.0001C990 129.899 960.899 159 925 159Z" fill="#38A169"/>
<path fill-rule="evenodd" clip-rule="evenodd" d="M951 141C915.101 141 886 111.899 886 76.0001C886 40.1016 856.899 11.0001 821 11.0001C785.101 11.0001 756 40.1016 756 76.0001C756 111.899 726.898 141 691 141C655.102 141 626 111.899 626 76.0001C626 40.1016 596.899 11.0001 561 11.0001C525.102 11.0001 496 40.1016 496 76.0001C496 111.899 466.898 141 431 141C395.102 141 366 111.899 366 76.0001C366 40.1016 336.899 11.0001 301 11.0001C265.102 11.0001 236 40.1015 236 76.0001C236 111.899 206.898 141 171 141C135.102 141 106 111.899 106 76C106 40.1015 76.8985 11 41 11C5.10151 11 -24 40.1015 -24 76C-24 111.899 -53.1014 141 -89 141C-124.899 141 -154 111.899 -154 76C-154 40.1015 -183.101 11 -219 11C-254.899 11 -284 40.1015 -284 76C-284 111.899 -313.101 141 -349 141C-384.899 141 -414 111.899 -414 76C-414 61.3643 -418.837 47.8583 -427 36.9936L-427 -134L1016 -134L1016 76.0001C1016 111.899 986.899 141 951 141Z" fill="#F6AD55"/>
<path fill-rule="evenodd" clip-rule="evenodd" d="M965 130C929.101 130 900 100.899 900 65.0001C900 29.1016 870.899 0.000108161 835 0.000105023C799.101 0.000101885 770 29.1016 770 65.0001C770 100.899 740.898 130 705 130C669.102 130 640 100.899 640 65.0001C640 29.1016 610.899 8.54313e-05 575 8.22929e-05C539.102 7.91546e-05 510 29.1016 510 65.0001C510 100.899 480.898 130 445 130C409.102 130 380 100.899 380 65.0001C380 29.1016 350.899 6.27014e-05 315 5.9563e-05C279.102 5.64247e-05 250 29.1015 250 65.0001C250 100.899 220.898 130 185 130C149.102 130 120 100.899 120 65C120 29.1015 90.8985 3.99715e-05 55 3.68331e-05C19.1015 3.36948e-05 -9.99999 29.1015 -9.99999 65C-10 100.899 -39.1014 130 -75 130C-110.899 130 -140 100.899 -140 65C-140 29.1015 -169.101 1.72415e-05 -205 1.41032e-05C-240.899 1.09648e-05 -270 29.1015 -270 65C-270 100.899 -299.101 130 -335 130C-370.899 130 -400 100.899 -400 65C-400 50.3643 -404.837 36.8583 -413 25.9936L-413 -145L1030 -145L1030 65.0001C1030 100.899 1000.9 130 965 130Z" fill="#F6E05E"/>
</g>
<defs>
<clipPath id="clip0">
<rect width="260" height="159" fill="white"/>
</clipPath>
</defs>
</svg>
