<svg width="299" height="74" viewBox="0 0 299 74" fill="none" xmlns="http://www.w3.org/2000/svg">
  <path fill="#fff" d="M22.4324 73.3C18.0991 73.3 14.4991 72.7333 11.6324 71.6C8.76576 70.4 6.46576 68.7 4.73242 66.5C3.06576 64.2333 1.93242 61.4667 1.33242 58.2C0.732422 54.9333 0.565755 51.2333 0.832422 47.1C2.29909 47.1667 3.99909 47.2 5.93242 47.2C7.53242 47.2667 9.46576 47.3 11.7324 47.3C14.0658 47.3 16.6324 47.3 19.4324 47.3C19.0991 51.3 19.1658 54.2667 19.6324 56.2C20.0991 58.0667 20.9991 59 22.3324 59C23.2658 59 23.9324 58.6 24.3324 57.8C24.7991 57 25.0324 55.5333 25.0324 53.4C25.0324 51.5333 24.4658 49.8667 23.3324 48.4C22.1991 46.8667 19.8991 45.2333 16.4324 43.5C13.4991 42.0333 11.0324 40.5 9.03242 38.9C7.09909 37.3 5.53242 35.5667 4.33242 33.7C3.13242 31.8333 2.26576 29.8 1.73242 27.6C1.26576 25.4 1.03242 22.9333 1.03242 20.2C1.03242 16.7333 1.56576 13.7667 2.63242 11.3C3.76576 8.83333 5.29909 6.86666 7.23242 5.4C9.16576 3.86667 11.4658 2.76666 14.1324 2.09999C16.7991 1.36666 19.6991 0.999996 22.8324 0.999996C30.5658 0.999996 36.0658 3.26666 39.3324 7.8C42.5991 12.2667 43.7991 18.8333 42.9324 27.5C41.1324 27.3667 39.2324 27.2333 37.2324 27.1C35.4991 26.9667 33.5324 26.8667 31.3324 26.8C29.1991 26.6667 27.0324 26.5667 24.8324 26.5C25.3658 22.2333 25.3324 19.3 24.7324 17.7C24.1991 16.0333 23.4658 15.2 22.5324 15.2C20.7991 15.2 19.9324 17.1333 19.9324 21C19.9324 22.9333 20.4324 24.7333 21.4324 26.4C22.4991 28 24.2991 29.3667 26.8324 30.5C30.2324 32.0333 33.0324 33.5667 35.2324 35.1C37.4324 36.5667 39.1658 38.2 40.4324 40C41.7658 41.7333 42.6658 43.6667 43.1324 45.8C43.6658 47.9333 43.9324 50.4 43.9324 53.2C43.9324 56.8 43.3991 59.8667 42.3324 62.4C41.3324 64.9333 39.8658 67 37.9324 68.6C36.0658 70.2 33.7991 71.3667 31.1324 72.1C28.5324 72.9 25.6324 73.3 22.4324 73.3ZM45.4707 70.8C45.8707 65.1333 46.204 58.8 46.4707 51.8C46.7374 45.8 47.004 38.8 47.2707 30.8C47.5374 22.7333 47.804 13.9 48.0707 4.3H55.5707C57.904 4.3 60.5707 4.3 63.5707 4.3C66.5707 4.23333 69.804 4.13333 73.2707 4C73.604 7.26666 74.004 10.7667 74.4707 14.5C74.8707 17.7 75.3374 21.4333 75.8707 25.7C76.404 29.9 77.004 34.3333 77.6707 39C78.404 33.7333 79.1707 27.8 79.9707 21.2C80.7707 14.6 81.4707 7.8 82.0707 0.799999C84.6707 0.866665 87.4374 0.966663 90.3707 1.09999C92.8374 1.23333 95.604 1.33333 98.6707 1.4C101.804 1.46666 104.971 1.56666 108.171 1.7C108.171 7.36666 108.304 13.8333 108.571 21.1C108.771 27.3667 109.037 34.8667 109.371 43.6C109.771 52.3333 110.337 62.2 111.071 73.2C109.204 73.2667 107.237 73.3667 105.171 73.5C103.437 73.6333 101.437 73.7333 99.1707 73.8C96.9707 73.8667 94.7374 73.9333 92.4707 74C92.5374 69.6 92.5707 64.6667 92.5707 59.2C92.5707 54.5333 92.504 49 92.3707 42.6C92.304 36.1333 92.1374 29.0667 91.8707 21.4C91.404 24.2 90.9374 27.2667 90.4707 30.6C90.004 33.9333 89.5374 37.4 89.0707 41C88.604 44.5333 88.1707 48.1333 87.7707 51.8C87.3707 55.4 87.0374 58.9333 86.7707 62.4C84.9707 62.4 83.0707 62.3667 81.0707 62.3C79.3374 62.2333 77.404 62.2 75.2707 62.2C73.204 62.1333 71.104 62.0333 68.9707 61.9C68.704 59.1 68.3374 55.8667 67.8707 52.2C67.4707 49 66.9707 45.1667 66.3707 40.7C65.7707 36.1667 65.004 30.9667 64.0707 25.1C64.0707 31.1667 64.0707 38.1667 64.0707 46.1C64.1374 53.9667 64.2707 62.3333 64.4707 71.2C62.204 71.1333 59.9707 71.0667 57.7707 71C55.8374 70.9333 53.7707 70.9 51.5707 70.9C49.4374 70.9 47.404 70.8667 45.4707 70.8ZM114.949 72.1V51.9C114.949 45.6333 114.915 38.3 114.849 29.9C114.782 21.5 114.682 12.4 114.549 2.6H119.149C120.682 2.6 122.549 2.6 124.749 2.6C127.015 2.6 129.649 2.56666 132.649 2.49999C132.649 9.1 132.682 16.2 132.749 23.8C132.815 30.2667 132.849 37.6667 132.849 46C132.915 54.3333 133.015 63.0333 133.149 72.1H128.649H114.949ZM138.282 71.6C138.282 66.0667 138.248 59.7667 138.182 52.7C138.115 46.6333 138.048 39.4333 137.982 31.1C137.915 22.7667 137.815 13.4333 137.682 3.1C138.948 3.16666 140.448 3.2 142.182 3.2C143.715 3.2 145.582 3.2 147.782 3.2C149.982 3.2 152.615 3.16666 155.682 3.1C155.615 5.36666 155.582 8.8 155.582 13.4C155.582 17.3333 155.615 22.6667 155.682 29.4C155.748 36.0667 155.882 44.6667 156.082 55.2C158.082 55.3333 159.948 55.4333 161.682 55.5C163.482 55.5 165.048 55.5 166.382 55.5H170.682C170.615 58.0333 170.582 60.3 170.582 62.3C170.582 64.3 170.582 66.0333 170.582 67.5V72C169.582 72 168.315 72 166.782 72C165.315 71.9333 163.715 71.9 161.982 71.9C160.315 71.8333 158.548 71.8 156.682 71.8C154.882 71.7333 153.115 71.7 151.382 71.7C147.248 71.6333 142.882 71.6 138.282 71.6ZM173.443 71.7C173.376 65.9 173.309 59.4 173.243 52.2C173.176 46 173.076 38.7 172.943 30.3C172.876 21.9 172.776 12.6333 172.643 2.49999C174.509 2.49999 176.943 2.46666 179.943 2.4C182.476 2.4 185.809 2.4 189.943 2.4C194.076 2.33333 199.176 2.26666 205.243 2.2V7.2C205.243 8.73333 205.243 10.6 205.243 12.8C205.243 14.9333 205.309 17.3 205.443 19.9C203.576 19.9667 201.743 20 199.943 20C198.409 20.0667 196.776 20.1 195.043 20.1C193.376 20.1 191.876 20.1333 190.543 20.2C190.476 21.5333 190.443 22.7667 190.443 23.9C190.509 24.9667 190.543 25.9333 190.543 26.8V29.5C190.943 29.5 192.109 29.5333 194.043 29.6C195.976 29.6 198.943 29.5333 202.943 29.4V34.2C202.943 35.7333 202.943 37.5333 202.943 39.6C202.943 41.6 202.976 43.8333 203.043 46.3H199.543C198.409 46.3 197.109 46.3 195.643 46.3C194.176 46.2333 192.609 46.2 190.943 46.2V48.6C190.943 50.2 191.043 52.3333 191.243 55C192.309 55.0667 193.576 55.1333 195.043 55.2C196.243 55.2667 197.709 55.3667 199.443 55.5C201.176 55.5667 203.109 55.6333 205.243 55.7C205.176 56.8333 205.143 58.2333 205.143 59.9C205.076 61.3 205.043 63.0333 205.043 65.1C205.043 67.1667 205.043 69.6 205.043 72.4C202.109 72.3333 198.943 72.2333 195.543 72.1C192.609 72.0333 189.243 71.9667 185.443 71.9C181.643 71.8333 177.643 71.7667 173.443 71.7ZM221.882 73.5C221.949 72.9667 221.982 72.1 221.982 70.9C221.982 69.8333 221.949 68.3333 221.882 66.4C221.882 64.4 221.816 61.7667 221.682 58.5C220.949 55.5 219.916 51.5 218.582 46.5C217.449 42.2333 215.882 36.7 213.882 29.9C211.949 23.0333 209.482 14.5667 206.482 4.5C207.216 4.56666 208.449 4.56666 210.182 4.5C211.649 4.43333 213.649 4.36666 216.182 4.3C218.716 4.23333 222.049 4.1 226.182 3.89999C226.449 5.9 226.782 8.33333 227.182 11.2C227.516 13.6667 227.982 16.7667 228.582 20.5C229.249 24.2333 230.049 28.7 230.982 33.9C231.449 30.7667 231.982 27.4333 232.582 23.9C233.049 20.9 233.582 17.5 234.182 13.7C234.782 9.9 235.349 5.96666 235.882 1.9C236.949 1.96666 238.349 2.03333 240.082 2.09999C241.549 2.16666 243.449 2.23333 245.782 2.3C248.182 2.3 251.082 2.26666 254.482 2.2C253.216 6.66666 251.816 11.7333 250.282 17.4C248.949 22.2667 247.382 28.1333 245.582 35C243.849 41.8667 241.916 49.5667 239.782 58.1V60.5C239.782 61.5667 239.782 63.1 239.782 65.1C239.849 67.1 239.949 69.8667 240.082 73.4C239.282 73.3333 238.082 73.3 236.482 73.3C235.149 73.3 233.282 73.3 230.882 73.3C228.549 73.3 225.549 73.3667 221.882 73.5ZM276.729 73.3C272.396 73.3 268.796 72.7333 265.929 71.6C263.063 70.4 260.763 68.7 259.029 66.5C257.363 64.2333 256.229 61.4667 255.629 58.2C255.029 54.9333 254.863 51.2333 255.129 47.1C256.596 47.1667 258.296 47.2 260.229 47.2C261.829 47.2667 263.763 47.3 266.029 47.3C268.363 47.3 270.929 47.3 273.729 47.3C273.396 51.3 273.463 54.2667 273.929 56.2C274.396 58.0667 275.296 59 276.629 59C277.563 59 278.229 58.6 278.629 57.8C279.096 57 279.329 55.5333 279.329 53.4C279.329 51.5333 278.763 49.8667 277.629 48.4C276.496 46.8667 274.196 45.2333 270.729 43.5C267.796 42.0333 265.329 40.5 263.329 38.9C261.396 37.3 259.829 35.5667 258.629 33.7C257.429 31.8333 256.563 29.8 256.029 27.6C255.563 25.4 255.329 22.9333 255.329 20.2C255.329 16.7333 255.863 13.7667 256.929 11.3C258.063 8.83333 259.596 6.86666 261.529 5.4C263.463 3.86667 265.763 2.76666 268.429 2.09999C271.096 1.36666 273.996 0.999996 277.129 0.999996C284.863 0.999996 290.363 3.26666 293.629 7.8C296.896 12.2667 298.096 18.8333 297.229 27.5C295.429 27.3667 293.529 27.2333 291.529 27.1C289.796 26.9667 287.829 26.8667 285.629 26.8C283.496 26.6667 281.329 26.5667 279.129 26.5C279.663 22.2333 279.629 19.3 279.029 17.7C278.496 16.0333 277.763 15.2 276.829 15.2C275.096 15.2 274.229 17.1333 274.229 21C274.229 22.9333 274.729 24.7333 275.729 26.4C276.796 28 278.596 29.3667 281.129 30.5C284.529 32.0333 287.329 33.5667 289.529 35.1C291.729 36.5667 293.463 38.2 294.729 40C296.063 41.7333 296.963 43.6667 297.429 45.8C297.963 47.9333 298.229 50.4 298.229 53.2C298.229 56.8 297.696 59.8667 296.629 62.4C295.629 64.9333 294.163 67 292.229 68.6C290.363 70.2 288.096 71.3667 285.429 72.1C282.829 72.9 279.929 73.3 276.729 73.3Z" />
</svg>
